# xmcd
#
# Track frame offsets:
#	150
#	1771
#	18988
#	37403
#	59174
#	78576
#	124069
#	149163
#	174535
#	194969
#	215248
#	247967
#	267132
#	288904
#
# Disc length: 4336 seconds
#
# Revision: 1
# Processed by: cddbd v1.5.2PL0 Copyright (c) Steve Scherf et al.
# Submitted via: audiograbber 1.83.01
#
DISCID=e010ee0e
DTITLE=NRPS - 71-07-02 Fillmore West, San Francisco CA
DYEAR=1900
DGENRE=
TTITLE0=Bill Graham Intro
TTITLE1=Workingman's Blues
TTITLE2=Superman
TTITLE3=I Don't Know You
TTITLE4=Down In The Boondocks
TTITLE5=Dirty Business
TTITLE6=Glendale Train
TTITLE7=Portland Women
TTITLE8=Henry
TTITLE9=Sailing Song
TTITLE10=Last Lonely Eagle
TTITLE11=Louisiana Lady
TTITLE12=Honky Tonk Women
TTITLE13=The Weight
EXTD=
EXTT0=
EXTT1=
EXTT2=
EXTT3=
EXTT4=
EXTT5=
EXTT6=
EXTT7=
EXTT8=
EXTT9=
EXTT10=
EXTT11=
EXTT12=
EXTT13=
PLAYORDER=
